# This file uses centimeters as units for non-parametric coordinates.

mtllib tv1notexture.mtl
g default
v -0.201734 -2.744634 0.070146
v -0.201734 -3.128468 0.070146
v 0.201734 -3.128468 0.070146
v 0.201734 -2.744634 0.070146
v -0.201734 -2.744634 -0.070146
v -0.201734 -3.128468 -0.070146
v -0.739226 -3.220933 0.324655
v 0.739226 -3.220933 0.324655
v 0.201734 -3.128468 -0.070146
v 0.201734 -2.744634 -0.070146
v -0.739226 -3.220933 -0.324655
v 0.739226 -3.220933 -0.324655
v -4.534688 2.481009 0.167336
v -4.225271 2.481009 0.167336
v -4.225271 2.744634 0.167336
v -4.426869 2.699709 0.167336
v -4.534688 2.481009 -0.167336
v -4.426869 2.699709 -0.167336
v -4.534688 -2.450031 0.167336
v -4.225271 -2.450031 0.167336
v 4.308589 2.481009 0.167336
v 4.308589 2.744634 0.167336
v -4.225271 2.744634 -0.167336
v -4.225271 2.481009 -0.167336
v -4.534688 -2.450031 -0.167336
v -4.381436 -2.704517 0.167336
v -4.225271 -2.744634 0.167336
v 4.308589 -2.450031 0.167336
v 4.308589 2.744634 -0.167336
v 4.534688 2.481009 0.167336
v 4.464460 2.685271 0.167336
v 4.308589 2.481009 -0.167336
v -4.225271 -2.450031 -0.167336
v -4.388928 -2.710736 -0.167336
v -4.225271 -2.744634 -0.167336
v 4.308589 -2.744634 0.167336
v 4.534688 -2.450031 0.167336
v 4.464460 2.685271 -0.167336
v 4.534688 2.481009 -0.167336
v 4.308589 -2.450031 -0.167336
v 4.308589 -2.744634 -0.167336
v 4.450458 -2.694330 0.167336
v 4.534688 -2.450031 -0.167336
v 4.450458 -2.694330 -0.167336
v 4.534688 2.572832 0.167336
v 4.534688 2.552078 -0.167336
v -4.522110 2.593174 0.167336
v -4.522110 2.570029 -0.167336
v -4.225271 2.551330 -0.167336
v -4.484811 -2.629730 0.167336
v -4.494011 -2.661511 -0.167336
v -4.225271 -2.574243 -0.167336
v 4.519531 -2.600367 0.167336
v 4.519531 -2.595328 -0.167336
vt 0.375000 0.101571
vt 0.375000 0.000000
vt 0.625000 0.000000
vt 0.625000 0.101571
vt 0.125000 0.101571
vt 0.125000 0.000000
vt 0.625000 1.000000
vt 0.375000 1.000000
vt 0.375000 1.000000
vt 0.625000 1.000000
vt 0.875000 0.000000
vt 0.875000 0.101571
vt 0.625000 0.648429
vt 0.625000 0.750000
vt 0.375000 0.750000
vt 0.375000 0.648429
vt 0.375000 0.750000
vt 0.625000 0.750000
vt 0.375000 0.237994
vt 0.383529 0.237994
vt 0.383529 0.250000
vt 0.375000 0.250000
vt 0.125000 0.237994
vt 0.125000 0.250000
vt 0.375000 0.013417
vt 0.383529 0.013417
vt 0.618768 0.237994
vt 0.618768 0.250000
vt 0.383529 0.500000
vt 0.375000 0.500000
vt 0.383529 0.512006
vt 0.375000 0.512006
vt 0.125000 0.013417
vt 0.375000 0.000000
vt 0.383529 0.000000
vt 0.618768 0.013417
vt 0.618768 0.500000
vt 0.625000 0.237994
vt 0.625000 0.250000
vt 0.618768 0.512006
vt 0.383529 0.736583
vt 0.375000 0.736583
vt 0.125000 0.000000
vt 0.375000 0.750000
vt 0.383529 0.750000
vt 0.383529 1.000000
vt 0.375000 1.000000
vt 0.618768 0.000000
vt 0.625000 0.013417
vt 0.625000 0.500000
vt 0.875000 0.237994
vt 0.875000 0.250000
vt 0.618768 0.736583
vt 0.625000 0.512006
vt 0.505561 0.927399
vt 0.505561 0.822601
vt 0.494439 0.822601
vt 0.618768 0.750000
vt 0.618768 1.000000
vt 0.494439 0.927399
vt 0.625000 0.000000
vt 0.875000 0.013417
vt 0.625000 0.736583
vt 0.625000 0.750000
vt 0.625000 1.000000
vt 0.875000 0.000000
vt 0.625000 0.242176
vt 0.875000 0.241230
vt 0.625000 0.508770
vt 0.375000 0.243266
vt 0.125000 0.242212
vt 0.375000 0.507788
vt 0.383529 0.508804
vt 0.375000 0.008617
vt 0.125000 0.006719
vt 0.375000 0.743281
vt 0.383529 0.742240
vt 0.625000 0.009236
vt 0.875000 0.009466
vt 0.625000 0.740535
vn 0.000000 0.000000 1.000000
vn 0.000000 0.802670 0.596424
vn 0.000000 0.802670 0.596424
vn 0.000000 0.000000 1.000000
vn -1.000000 0.000000 0.000000
vn -0.347502 0.937679 0.000000
vn -0.347502 0.937679 0.000000
vn -1.000000 0.000000 0.000000
vn 0.000000 0.939893 0.341471
vn 0.000000 0.939893 0.341471
vn 1.000000 0.000000 0.000000
vn 0.347502 0.937679 0.000000
vn 0.347502 0.937679 0.000000
vn 1.000000 0.000000 0.000000
vn 0.000000 0.000000 -1.000000
vn 0.000000 0.802670 -0.596424
vn 0.000000 0.802670 -0.596424
vn 0.000000 0.000000 -1.000000
vn -0.169540 0.985523 0.000000
vn -0.169540 0.985523 0.000000
vn 0.169540 0.985523 0.000000
vn 0.169540 0.985523 0.000000
vn 0.000000 -1.000000 0.000000
vn 0.000000 -1.000000 0.000000
vn 0.000000 -1.000000 0.000000
vn 0.000000 -1.000000 0.000000
vn 0.000000 0.939893 -0.341471
vn 0.000000 0.939893 -0.341471
vn 0.000000 0.000000 1.000000
vn -0.000000 0.000000 1.000000
vn -0.000000 0.000000 1.000000
vn -0.999997 0.002500 -0.000086
vn -0.999997 0.002500 -0.000086
vn -0.892178 0.451415 -0.015609
vn -0.901544 0.432429 -0.014952
vn 0.000000 0.000000 1.000000
vn 0.000000 0.000000 1.000000
vn -0.000000 0.000000 1.000000
vn 0.000000 0.000000 1.000000
vn 0.000000 0.000000 1.000000
vn -0.217509 0.976058 0.000000
vn -0.005143 0.999987 0.000000
vn -0.005143 0.999987 0.000000
vn -0.217509 0.976058 0.000000
vn 0.000000 0.000000 -1.000000
vn -0.000000 0.000000 -1.000000
vn -0.000000 0.000000 -1.000000
vn 0.000000 0.000000 -1.000000
vn -0.999961 -0.008831 0.000944
vn -0.999961 -0.008831 0.000944
vn 0.000000 0.000000 1.000000
vn 0.000000 0.000000 1.000000
vn 0.000000 0.000000 1.000000
vn 0.000000 0.000000 1.000000
vn 0.006831 0.999977 0.000000
vn 0.006831 0.999977 0.000000
vn 0.000000 0.000000 1.000000
vn 0.000000 0.000000 1.000000
vn -0.000000 0.000000 -1.000000
vn -0.000000 0.000000 -1.000000
vn -0.000000 0.000000 -1.000000
vn 0.000000 0.000000 -1.000000
vn 0.000000 0.000000 -1.000000
vn -0.510305 -0.857797 0.061424
vn -0.510305 -0.857797 0.061425
vn -0.871298 -0.489080 0.040513
vn -0.857305 -0.513096 0.041965
vn -0.225450 -0.974186 0.011574
vn -0.008579 -0.999963 0.000439
vn -0.008581 -0.999963 0.000439
vn -0.225450 -0.974186 0.011574
vn 0.000000 0.000000 1.000000
vn 0.000000 0.000000 1.000000
vn 0.000000 0.000000 1.000000
vn 0.355907 0.934521 0.000000
vn 0.355907 0.934521 0.000000
vn 0.942697 0.333490 -0.010340
vn 0.948569 0.316420 -0.009810
vn 0.867995 0.496335 -0.015389
vn 0.867995 0.496335 -0.015389
vn 0.000000 0.000000 -1.000000
vn 0.000000 0.000000 -1.000000
vn 0.000000 0.000000 -1.000000
vn 0.000000 0.000000 -1.000000
vn 0.000000 0.000000 -1.000000
vn 0.000000 0.000000 -1.000000
vn 0.000000 0.000000 -1.000000
vn 0.000000 -1.000000 -0.000001
vn 0.000000 -1.000000 0.000001
vn 0.000000 -1.000000 -0.000000
vn 0.011553 -0.999933 0.000001
vn 0.011556 -0.999933 0.000001
vn 0.000000 -1.000000 -0.000001
vn 0.000000 0.000000 1.000000
vn 0.999996 -0.002984 -0.000022
vn 0.999996 -0.002984 -0.000022
vn 1.000000 0.000000 0.000000
vn 1.000000 0.000000 0.000000
vn 0.000000 0.000000 -1.000000
vn 0.000000 0.000000 -1.000000
vn 0.000000 0.000000 -1.000000
vn 0.334193 -0.942505 0.000000
vn 0.334193 -0.942505 0.000000
vn 0.944642 -0.328095 -0.002470
vn 0.946121 -0.323804 -0.002437
vn 0.000000 0.000000 -1.000000
vn -0.000000 0.000000 1.000000
vn -0.778254 0.627575 -0.021700
vn -0.778254 0.627575 -0.021700
vn 0.000000 0.000000 -1.000000
vn 0.000000 0.000000 1.000000
vn 0.813098 -0.582110 -0.004382
vn 0.813098 -0.582110 -0.004382
vn 0.000000 0.000000 -1.000000
s 1
g pCube3
usemtl lambert2SG
f 1/1/1 2/2/2 3/3/3 4/4/4
s 2
f 5/5/5 6/6/6 2/2/7 1/1/8
s 1
f 3/7/3 2/8/2 7/9/9 8/10/10
s 3
f 4/4/11 3/3/12 9/11/13 10/12/14
s 4
f 10/13/15 9/14/16 6/15/17 5/16/18
s 2
f 2/8/7 6/15/6 11/17/19 7/9/20
s 3
f 9/14/13 3/7/12 8/10/21 12/18/22
s off
f 11/17/23 12/18/24 8/10/25 7/9/26
s 4
f 6/15/17 9/14/16 12/18/27 11/17/28
s 5
f 13/19/29 14/20/30 47/70/31
s 6
f 17/23/32 13/19/33 47/70/34 48/71/35
s 5
f 19/25/36 20/26/37 14/20/30 13/19/29
f 15/21/38 14/20/30 21/27/39 22/28/40
s 7
f 16/22/41 15/21/42 23/29/43 18/30/44
s 8
f 48/72/45 49/73/46 24/31/47 17/32/48
s 6
f 25/33/49 19/25/50 13/19/33 17/23/32
s 5
f 26/34/51 27/35/52 20/26/37 50/74/53
f 14/20/30 20/26/37 28/36/54 21/27/39
s 7
f 15/21/42 22/28/55 29/37/56 23/29/43
s 5
f 22/28/40 21/27/39 45/67/57 31/39/58
s 8
f 24/31/47 49/73/46 23/29/59 29/37/60 32/40/61
f 17/32/48 24/31/47 33/41/62 25/42/63
s 6
f 34/43/64 26/34/65 50/74/66 51/75/67
s 10
f 34/44/68 35/45/69 27/46/70 26/47/71
s 5
usemtl lambert3SG
f 20/26/37 27/35/52 36/48/72 28/36/54
usemtl lambert2SG
f 30/38/73 21/27/39 28/36/54 37/49/74
s 7
f 22/28/55 31/39/75 38/50/76 29/37/56
s 11
f 45/67/77 46/68/78 38/52/79 31/39/80
s 8
f 33/41/62 24/31/47 32/40/61 40/53/81
f 32/40/61 29/37/60 38/50/82 46/69/83
f 51/76/84 52/77/85 35/45/86 34/44/87
s 10
f 4/55/88 10/56/89 5/57/90 35/45/69 41/58/91 36/59/92
f 27/46/70 35/45/69 5/57/90 1/60/93 4/55/88 36/59/92
s 5
f 37/49/74 28/36/54 53/78/94
s 11
f 37/49/95 43/62/96 39/51/97 30/38/98
s 8
f 35/45/86 52/77/85 33/41/62 40/53/81 41/58/99
f 43/63/100 40/53/81 32/40/61 39/54/101
s 10
f 36/59/92 41/58/91 44/64/102 42/65/103
s 11
f 53/78/104 54/79/105 43/62/96 37/49/95
s 8
f 54/80/106 40/53/81 43/63/100
s 5
f 45/67/57 21/27/39 30/38/73
s 11
f 30/38/98 39/51/97 46/68/78 45/67/77
s 8
f 32/40/61 46/69/83 39/54/101
s 5
f 47/70/31 14/20/30 15/21/38 16/22/107
s 6
f 48/71/35 47/70/34 16/22/108 18/24/109
s 8
f 18/30/110 23/29/59 49/73/46 48/72/45
s 5
f 50/74/53 20/26/37 19/25/36
s 6
f 51/75/67 50/74/66 19/25/50 25/33/49
s 8
f 25/42/63 33/41/62 52/77/85 51/76/84
s 5
f 53/78/94 28/36/54 36/48/72 42/61/111
s 11
f 42/61/112 44/66/113 54/79/105 53/78/104
s 8
f 41/58/99 40/53/81 54/80/106 44/64/114
